<?xml version="1.0" encoding="utf-8"?>
<!-- Generator: Adobe Illustrator 18.0.0, SVG Export Plug-In . SVG Version: 6.00 Build 0)  -->
<!DOCTYPE svg PUBLIC "-//W3C//DTD SVG 1.1//EN" "http://www.w3.org/Graphics/SVG/1.1/DTD/svg11.dtd">
<svg version="1.1" id="Logo" xmlns="http://www.w3.org/2000/svg" xmlns:xlink="http://www.w3.org/1999/xlink" x="0px" y="0px"
	 viewBox="0 0 1133.9 75.1" enable-background="new 0 0 1133.9 75.1" xml:space="preserve">
<path fill="#FFFFFF" d="M20.8,3.9h1.7c3.6,0,5.9,0.3,6.9,0.9c1.1,0.6,1.8,1.7,2.1,3.4c0.3,1.6,0.5,5.2,0.5,10.8v24
	c0,7.8-0.3,13.5-0.8,16.9c-0.6,3.4-2.2,6.4-4.9,8.9c-2.7,2.5-6,3.8-9.9,3.8c-1.9,0-3.6-0.3-4.9-0.9c-1.3-0.6-2-1.5-2-2.6
	c0-0.4,0.2-1,0.6-1.8c0.4-0.9,0.6-1.8,0.6-2.7c0-1.5-0.5-2.7-1.6-3.7c-1-1-2.3-1.5-3.8-1.5c-1.5,0-2.8,0.5-3.8,1.7
	c-1,1.1-1.5,2.5-1.5,4.1c0,2.7,1.4,5.1,4.3,7c2.9,2,7,2.9,12.3,2.9c4.7,0,8.9-0.8,12.5-2.4c3.6-1.6,6.4-3.9,8.6-6.8
	c2.1-3,3.4-6,3.9-9.1c0.5-3.1,0.7-7.6,0.7-13.6v-24c0-5.9,0.2-9.6,0.5-11.1c0.3-1.5,1-2.6,2.1-3.2c1.1-0.6,3.3-0.9,6.8-0.9h1.8V1.6
	H20.8V3.9z M103.5,2.5c-3.9-1.1-9.6-1.7-16.9-1.7c-4,0-9.5,0.1-16.6,0.4l-8.9,0.4v2.4h1.3c3.6,0,5.9,0.3,7,0.9
	c1.1,0.6,1.8,1.7,2.1,3.4c0.3,1.6,0.5,5.2,0.5,10.9v34.6c0,5.9-0.2,9.6-0.5,11.2c-0.3,1.6-1.1,2.8-2.2,3.6c-1.2,0.7-3.3,1.1-6.3,1.1
	h-1.9V72h32.5v-2.4h-2.3c-3.2,0-5.3-0.4-6.5-1.3c-1.1-0.8-1.9-2.1-2.1-3.8c-0.3-1.7-0.4-5.4-0.4-10.9V38.8H90
	c8.1,0,13.7-0.8,16.9-2.3c3.2-1.5,5.7-3.8,7.4-6.7c1.7-2.9,2.6-6.3,2.6-10.2c0-4.4-1.3-8.1-3.8-11C110.6,5.7,107.4,3.7,103.5,2.5z
	 M103.4,29.9c-1.7,2.6-3.7,4.3-6.2,5.1c-2.5,0.8-5.8,1.2-9.8,1.2h-5V3.5c1.2-0.1,3.1-0.2,5.4-0.2c6.4,0,11.1,1.4,13.9,4.1
	c2.9,2.7,4.3,7,4.3,12.8C105.9,24.1,105.1,27.3,103.4,29.9z M175.7,59.9L149.9,1.6h-21.5v2.4h1.9c3.6,0,5.9,0.3,7,0.9
	c1.1,0.6,1.8,1.7,2.1,3.4c0.3,1.6,0.5,5.3,0.5,10.9v30.7c0,5.8-0.2,9.8-0.6,12c-0.4,2.1-1.6,4-3.5,5.4c-1.9,1.5-4.4,2.3-7.4,2.5V72
	h25.4v-2.4c-3.3-0.2-5.8-1.1-7.6-2.6c-1.8-1.5-2.9-3.3-3.2-5.4c-0.3-2-0.5-5.9-0.5-11.5V8.9l28,63.2h2.5l27.7-63.2v44.8
	c0,5.9-0.2,9.6-0.5,11.3c-0.3,1.6-1.1,2.8-2.2,3.6c-1.2,0.7-3.3,1.1-6.3,1.1h-2.5V72h33.9v-2.4H220c-3.2,0-5.4-0.4-6.5-1.3
	c-1.1-0.8-1.8-2.1-2.1-3.8c-0.3-1.7-0.4-5.3-0.4-10.9V19.1c0-5.9,0.2-9.6,0.5-11.1c0.4-1.6,1.1-2.6,2.2-3.2c1.1-0.6,3.4-0.9,6.8-0.9
	h2.6V1.6h-21.7L175.7,59.9z M277.5,24.3c-5.7-5-12.7-7.5-21.1-7.5c-8.3,0-15.3,2.5-20.9,7.6c-5.6,5.1-8.4,11.8-8.4,20.1
	c0,8.6,2.8,15.5,8.3,20.6c5.5,5.2,12.5,7.8,21.1,7.8c8.8,0,15.9-2.6,21.4-7.8c5.4-5.2,8.1-12,8.1-20.4
	C285.9,36.1,283.1,29.3,277.5,24.3z M271.4,64.4c-3.5,4.4-8.3,6.5-14.4,6.5c-6.9,0-12.1-2.2-15.6-6.5c-3.5-4.4-5.2-10.9-5.2-19.6
	c0-8.6,1.7-15.1,5.2-19.4c3.5-4.4,8.4-6.6,14.9-6.6c6.6,0,11.6,2.2,15.1,6.7c3.5,4.5,5.2,10.9,5.2,19.4
	C276.7,53.5,275,60,271.4,64.4z M1108.9,24.3c-5.6-5-12.7-7.5-21.1-7.5c-8.3,0-15.3,2.5-20.9,7.6c-5.6,5.1-8.4,11.8-8.4,20.1
	c0,8.6,2.8,15.5,8.3,20.6c5.5,5.2,12.5,7.8,21.1,7.8c8.8,0,15.9-2.6,21.3-7.8c5.4-5.2,8.1-12,8.1-20.4
	C1117.4,36.1,1114.6,29.3,1108.9,24.3z M1102.9,64.4c-3.5,4.4-8.3,6.5-14.4,6.5c-6.9,0-12.1-2.2-15.5-6.5
	c-3.5-4.4-5.2-10.9-5.2-19.6c0-8.6,1.7-15.1,5.2-19.4c3.5-4.4,8.4-6.6,14.9-6.6c6.6,0,11.6,2.2,15.1,6.7c3.5,4.5,5.2,10.9,5.2,19.4
	C1108.2,53.5,1106.4,60,1102.9,64.4z M332.3,56.6c-5-6.8-8.6-10.7-10.9-11.8c5-0.6,8.8-2.2,11.4-4.7c2.6-2.5,3.9-5.5,3.9-9.1
	c0-3-1-5.7-3-7.8c-2-2.2-4.6-3.8-7.8-4.7c-3.2-1-7.4-1.4-12.6-1.4c-3,0-7.1,0.1-12.3,0.3l-7.7,0.4v1.9h0.9c2.8,0,4.6,0.2,5.4,0.7
	c0.8,0.5,1.4,1.3,1.6,2.6c0.3,1.3,0.4,4,0.4,8.4v26.6c0,4.5-0.1,7.4-0.4,8.6c-0.2,1.2-0.8,2.2-1.7,2.7c-0.9,0.6-2.5,0.9-4.8,0.9H293
	v1.8h26v-1.8h-2.6c-2.4,0-4.1-0.3-5-0.9c-0.9-0.6-1.4-1.6-1.6-2.9c-0.2-1.3-0.3-4.1-0.3-8.3V46h2.1c1.5,0,2.5,0.2,3.2,0.7
	c0.7,0.5,1.9,1.9,3.8,4.1c1.8,2.2,3.6,4.6,5.3,7c5.3,7.6,9.2,12.3,11.8,14.1h14.5v-1.8c-3.2-0.1-5.9-1-8.2-2.7
	C339.6,65.6,336.4,62.1,332.3,56.6z M315.6,43.7c-2.1,0.1-4.1,0.2-6.1,0.2V19.2c1.2-0.1,2.4-0.2,3.3-0.2c6.3,0,10.4,1.1,12.3,3.4
	c1.9,2.3,2.8,5.3,2.8,9.2c0,2.2-0.3,4-0.8,5.5c-0.5,1.5-1.3,2.7-2.3,3.6c-1,0.9-2.2,1.6-3.8,2.1C319.5,43.3,317.7,43.6,315.6,43.7z
	 M387.6,50.6h1.3c2.1,0,3.6,0.2,4.4,0.5c0.8,0.3,1.4,1,1.8,2c0.4,1,0.6,2.9,0.6,5.8c0,2.5-0.4,4.5-1.2,6.2c-0.8,1.6-2.4,3-4.6,4.1
	c-2.3,1.1-4.8,1.7-7.5,1.7c-5.4,0-9.9-2-13.5-6c-3.6-4-5.4-10.8-5.4-20.4c0-9.6,1.9-16.3,5.7-20.1c3.8-3.8,8.2-5.7,13.3-5.7
	c4.9,0,9.1,1.6,12.6,4.8c3.4,3.2,5.6,7.6,6.3,13.2h1.9V18.6h-1.9c-0.2,2.2-0.8,4.2-1.7,6.1c-4.8-5.3-10.8-8-18-8
	c-8.4,0-15.1,2.9-20,8.7c-4.9,5.8-7.4,12.6-7.4,20.4c0,7.8,2.6,14.3,7.7,19.4c5.1,5.1,11.6,7.7,19.3,7.7c3.9,0,8-0.8,12.6-2.5
	c3.3-1.2,6-1.9,8.1-1.9c0.5,0,1.1,0.1,1.7,0.2v-5.8c0-4.7,0.1-7.6,0.4-8.8c0.3-1.2,0.9-2.1,1.8-2.6c0.9-0.5,2.7-0.8,5.3-0.8v-1.8
	h-23.4V50.6z M464.4,65.7l-2.5-5.7l-18-43h-1.6l-15.8,37.5c-1.1,2.7-1.8,4.2-2,4.6c-1.7,4.2-3.1,7-4.2,8.3c-1.2,1.3-3,2.2-5.4,2.5
	v1.8h16.3v-1.8c-1.8,0-3.2-0.4-4.3-1.3c-1.1-0.8-1.7-2.1-1.7-3.7c0-1.5,1-4.8,3.1-9.8l1.4-3.4h20.5l4.1,10c1.2,2.9,1.8,4.6,1.8,5.2
	c0,1.1-0.5,1.9-1.4,2.3c-0.9,0.4-2.7,0.6-5.3,0.6v1.8h21.3v-1.8c-1.9-0.2-3.3-0.6-4.3-1.4C465.7,67.9,465,66.9,464.4,65.7z
	 M430.6,49.9l9.4-22.9l9.4,22.9H430.6z M516.9,19.6c2.1,0,4,0.3,5.5,0.8c1.5,0.6,2.5,1.3,3,2.3c0.5,1,0.7,2.6,0.7,5v32.4l-32.1-42.4
	h-16.2v1.9c2.9,0,4.8,0.2,5.6,0.6c0.8,0.4,1.5,1.3,1.8,2.7c0.4,1.4,0.6,4.2,0.6,8.4V60c0,3.3-0.1,5.3-0.4,6.2
	c-0.3,0.9-1.1,1.7-2.4,2.5c-1.4,0.8-3.3,1.2-5.9,1.4v1.8h20.1v-1.8c-2.9,0-5-0.4-6.5-1.2c-1.4-0.8-2.3-1.7-2.6-2.7
	c-0.3-1-0.4-3-0.4-6.2V22.4l38.4,50.8h1.7V28.3c0-2.3,0.2-4,0.5-4.9c0.3-1,1.2-1.8,2.5-2.5c1.3-0.7,3.1-1.1,5.3-1.3v-1.9h-19.6V19.6
	z M603.1,3.1c6,0,11.4,1.9,16.2,5.6c4.8,3.7,7.9,10.3,9.5,19.8h2.4l-0.6-26.6h-2.4c-0.3,3.1-1.2,6.2-2.7,9.1c-2.1-2.6-5.3-5-9.5-7.1
	c-4.3-2.2-9-3.2-14.2-3.2c-6.3,0-12.1,1.5-17.4,4.5c-5.3,3-9.4,7.5-12.4,13.7c-3,6.1-4.4,12.7-4.4,19.6c0,10.6,3.2,19.1,9.6,25.5
	c6.4,6.4,14.7,9.6,24.8,9.6c9.6,0,17.4-3.5,23.6-10.4c1.6,2.2,2.8,4.6,3.4,7.5h2.4V45.8h-2.4c-0.4,4.1-1.8,8.3-4.1,12.7
	c-2.3,4.4-5.4,7.5-9.3,9.3c-3.9,1.8-7.8,2.7-11.5,2.7c-7,0-12.9-2.8-17.6-8.4c-4.7-5.6-7.1-13.7-7.1-24.3c0-11.2,2.1-19.7,6.5-25.7
	C590,6.1,595.8,3.1,603.1,3.1z M679.6,19.4h1.4c2.7,0,4.5,0.2,5.3,0.7c0.8,0.5,1.3,1.3,1.6,2.6c0.2,1.3,0.3,4,0.3,8.4v10.7H660V31.1
	c0-4.5,0.1-7.4,0.4-8.6c0.3-1.2,0.8-2,1.7-2.4c0.8-0.4,2.6-0.7,5.3-0.7h1v-1.8h-24.5v1.8h1c2.8,0,4.6,0.2,5.4,0.7
	c0.8,0.5,1.4,1.3,1.6,2.6c0.2,1.3,0.4,4,0.4,8.4v26.6c0,4.5-0.1,7.4-0.4,8.7c-0.2,1.2-0.8,2.1-1.7,2.7c-0.9,0.6-2.5,0.9-4.8,0.9
	h-1.4v1.8h24.5v-1.8h-1.4c-2.5,0-4.1-0.3-5-1c-0.9-0.6-1.4-1.6-1.6-2.9c-0.2-1.3-0.3-4.1-0.3-8.4V44.5h28.2v13.1
	c0,4.5-0.1,7.4-0.3,8.7c-0.2,1.2-0.8,2.1-1.7,2.7c-0.9,0.6-2.5,0.9-4.7,0.9h-1.9v1.8h24.5v-1.8h-1.2c-2.4,0-4.1-0.3-5-1
	c-0.9-0.6-1.4-1.6-1.6-2.9c-0.2-1.3-0.3-4.1-0.3-8.4V31.1c0-4.5,0.1-7.4,0.4-8.6c0.3-1.2,0.8-2,1.7-2.4c0.8-0.4,2.5-0.7,5.2-0.7h0.8
	v-1.8h-24.5V19.4z M759,65.5l-2.5-5.7l-18-43h-1.6l-15.8,37.5c-1.1,2.7-1.8,4.2-1.9,4.6c-1.7,4.2-3.1,7-4.3,8.4
	c-1.2,1.3-3,2.2-5.4,2.5v1.8h16.3v-1.8c-1.8,0-3.2-0.4-4.3-1.3c-1.1-0.8-1.7-2.1-1.7-3.7c0-1.5,1-4.8,3.1-9.7l1.4-3.4h20.5l4.1,10
	c1.2,2.9,1.9,4.7,1.9,5.3c0,1.1-0.5,1.9-1.4,2.3c-0.9,0.4-2.7,0.6-5.3,0.6v1.8h21.3v-1.8c-1.9-0.2-3.3-0.6-4.2-1.4
	C760.3,67.8,759.5,66.8,759,65.5z M725.2,49.8l9.5-22.9l9.4,22.9H725.2z M801.2,44.1c-2.1-1.3-5.5-3-10.2-5
	c-4.9-2.2-8.3-4.2-10.1-5.9c-1.9-1.7-2.9-3.8-2.9-6.3c0-2.1,0.8-4,2.3-5.7c1.5-1.7,3.9-2.6,7.1-2.6c3.4,0,6.4,1.2,9,3.5
	c2.6,2.3,4.4,5.6,5.4,9.7h1.7V17.6h-1.7c-0.2,1.7-0.9,3.3-2.1,4.7c-2.1-2.3-4.2-3.9-6.2-4.6c-2-0.8-4.2-1.1-6.5-1.1
	c-4.1,0-7.5,1.3-10.2,3.9c-2.7,2.6-4,5.8-4,9.6c0,2.5,0.6,4.9,1.8,7.2c1.2,2.2,3,4,5.2,5.4c2.2,1.4,5.5,3,9.8,4.9
	c4.9,2.1,8.2,4,10.1,5.8c1.8,1.8,2.7,4.1,2.7,6.8c0,2.7-1,5.1-3.1,7.3c-2.1,2.2-5,3.3-8.8,3.3c-8.5,0-13.8-5.7-16.1-17h-2v17.5h2
	c0.4-2.3,1.1-4,2-5.3c4,4.5,8.9,6.8,14.9,6.8c5.2,0,9.3-1.4,12.4-4.4c3.1-2.9,4.7-6.7,4.7-11.3c0-2.9-0.7-5.5-1.9-7.8
	C805.1,47.1,803.4,45.4,801.2,44.1z M857.6,64.4c-1.7,2.3-3.4,3.7-5.2,4.4c-1.8,0.7-4.2,1-7,1h-4c-3.6,0-5.8-0.6-6.7-1.7
	c-0.8-1.1-1.2-4.9-1.2-11.3V44h5.9c2.3,0,3.9,0.2,4.9,0.5c1,0.3,1.7,1,2.2,2c0.5,1,0.8,3,0.8,6.1h1.8V34.1h-1.8
	c0,2.6-0.2,4.4-0.5,5.4c-0.3,0.9-1,1.6-2.1,2.1c-1,0.4-2.9,0.7-5.5,0.7h-5.7V19.4h7.4c3.8,0,6.5,0.2,8.2,0.6c1.7,0.4,3.2,1.4,4.4,3
	c1.2,1.6,2.3,4.2,3.1,8h1.8l-1.3-13.5h-38.6v1.8c2.6,0,4.4,0.3,5.2,0.8c0.8,0.5,1.3,1.4,1.6,2.7c0.2,1.3,0.3,4,0.3,8.2v26.6
	c0,4.5-0.1,7.3-0.3,8.4c-0.2,1.1-0.7,2-1.5,2.7c-0.8,0.7-2.5,1.1-5.2,1.1h-1.1v1.8h44.6l1.2-16.9h-1.9
	C860.6,59,859.2,62.1,857.6,64.4z M952.6,68.7c-2.5,0-4.9-0.7-7.1-2.2c-2.2-1.5-5.2-5-9.1-10.6c1.6-2.2,3.4-5.5,5.4-10.2
	c2.3-5.6,4.6-9.4,6.8-11.4c2.2-2,4.8-3.4,7.7-4.2v-2.5h-23.3v2.5c5.7,0.6,8.6,3,8.6,7.2c0,1.7-0.6,4.1-1.8,7.2
	c-1.2,3.1-2.8,6.1-4.9,9c-5.7-8.1-11.8-16.6-18.3-25.3c10.4-5.2,15.6-10.6,15.6-16.2c0-3.6-1.6-6.5-4.7-8.7
	c-3.2-2.2-6.7-3.3-10.6-3.3c-4.4,0-8,1.5-10.9,4.4c-2.9,2.9-4.3,6.3-4.3,10.1c0,4.8,2.1,10.1,6.4,16c-7,4.7-11.8,8.6-14.3,11.7
	c-2.5,3.1-3.7,6.9-3.7,11.5c0,4,1,7.5,3,10.5c2,3,4.6,5.4,7.8,7.1c3.2,1.7,6.5,2.5,10,2.5c7.1,0,13.9-3.5,20.2-10.6
	c5.4,7.1,11.6,10.6,18.7,10.6c3.2,0,6.1-0.9,8.6-2.7c2.5-1.8,4.1-4.2,4.9-7.2h-2.5C958.6,67.1,956,68.7,952.6,68.7z M910.7,5.3
	c1.6-1.7,3.7-2.6,6.3-2.6c2.6,0,4.8,0.9,6.4,2.7c1.6,1.8,2.4,4.2,2.4,7.1c0,4.9-3.6,9.5-10.8,13.7c-4.4-6.1-6.6-10.9-6.6-14.4
	C908.3,9.1,909.1,7,910.7,5.3z M915.2,68.4c-4.5,0-8.6-2-12.2-6c-3.6-4-5.4-8.2-5.4-12.6c0-2.9,1-5.9,3.1-9c2.1-3.1,5-5.8,8.8-8.1
	c5.5,7.2,12.1,16.6,19.7,28.2C924.9,65.9,920.3,68.4,915.2,68.4z M1017.3,2.8c6,0,11.4,1.9,16.1,5.6c4.8,3.7,7.9,10.3,9.5,19.8h2.4
	l-0.6-26.6h-2.3c-0.3,3.1-1.2,6.2-2.8,9.1c-2.1-2.6-5.3-5-9.5-7.1c-4.2-2.2-9-3.2-14.2-3.2c-6.3,0-12.2,1.5-17.4,4.5
	c-5.3,3-9.5,7.5-12.4,13.7c-3,6.1-4.5,12.7-4.5,19.6c0,10.6,3.2,19.1,9.6,25.5c6.4,6.4,14.7,9.6,24.8,9.6c9.5,0,17.4-3.5,23.6-10.4
	c1.6,2.2,2.8,4.6,3.4,7.4h2.4V45.5h-2.4c-0.4,4.1-1.8,8.3-4.1,12.7c-2.3,4.4-5.4,7.5-9.3,9.3c-3.9,1.8-7.8,2.8-11.5,2.8
	c-7,0-12.9-2.8-17.6-8.4c-4.7-5.6-7.1-13.7-7.1-24.3c0-11.2,2.2-19.7,6.5-25.7C1004.1,5.8,1009.9,2.8,1017.3,2.8z M1132.1,63.2
	c-1.2-1.2-2.6-1.7-4.2-1.7c-1.6,0-3,0.6-4.2,1.7c-1.2,1.2-1.8,2.6-1.8,4.2c0,1.6,0.6,3,1.7,4.2c1.2,1.2,2.6,1.8,4.2,1.8
	c1.6,0,3-0.6,4.2-1.7c1.2-1.2,1.8-2.6,1.8-4.2C1133.9,65.8,1133.3,64.4,1132.1,63.2z"/>
</svg>
